<svg width="244" height="52" viewBox="0 0 244 52" fill="none" xmlns="http://www.w3.org/2000/svg">
<rect width="244" height="52" fill="#F5F5F5"/>
<rect x="-55" y="-49" width="336" height="151" fill="white"/>
<path d="M0.832 34.112H22.592V38.848H0.832V34.112Z" fill="#D256FF"/>
<path d="M37.2608 24.96H36.7488L29.6448 16.128V32H25.1648V9.184H29.5168L37.1008 18.88L44.8768 9.216H49.0688V32H44.5888V16.032L37.2608 24.96ZM71.2998 32H67.4918L67.0118 28.064C66.2651 29.4933 65.1451 30.6027 63.6518 31.392C62.1798 32.16 60.4411 32.544 58.4358 32.544C56.2598 32.544 54.5851 32.1067 53.4118 31.232C52.2598 30.3573 51.6838 29.1093 51.6838 27.488C51.6838 26.4427 51.8971 25.536 52.3238 24.768C52.7718 24 53.4224 23.3813 54.2758 22.912C55.0651 22.464 55.9504 22.1333 56.9318 21.92C57.9131 21.6853 59.5878 21.4507 61.9558 21.216C63.9184 21.024 65.2091 20.7893 65.8278 20.512C66.4678 20.2133 66.7878 19.744 66.7878 19.104V19.072C66.7878 18.2613 66.4144 17.6533 65.6678 17.248C64.9424 16.8213 63.8438 16.608 62.3718 16.608C60.6438 16.608 59.3531 16.8853 58.4998 17.44C57.6464 17.9947 57.1664 18.8693 57.0598 20.064H52.2278C52.4411 17.824 53.3904 16.1067 55.0758 14.912C56.7824 13.696 59.1078 13.088 62.0518 13.088C65.2518 13.088 67.5878 13.6427 69.0598 14.752C70.5531 15.84 71.2998 17.5787 71.2998 19.968V32ZM59.9398 29.056C61.8384 29.056 63.4598 28.5013 64.8038 27.392C66.1478 26.2613 66.8198 24.96 66.8198 23.488V22.848C66.4784 23.1253 65.9771 23.3707 65.3158 23.584C64.6758 23.776 63.8011 23.936 62.6918 24.064C61.2198 24.2133 60.1424 24.3627 59.4598 24.512C58.7984 24.6613 58.2651 24.8533 57.8598 25.088C57.4544 25.3227 57.1664 25.5893 56.9958 25.888C56.8251 26.1653 56.7398 26.5067 56.7398 26.912V26.944C56.7398 27.648 57.0064 28.1813 57.5398 28.544C58.0731 28.8853 58.8731 29.056 59.9398 29.056ZM94.0855 33.728V33.792C94.0855 35.9467 93.1895 37.5787 91.3975 38.688C89.6268 39.7973 87.0135 40.352 83.5575 40.352H82.8855C79.5788 40.352 77.1575 40.0107 75.6215 39.328C74.0855 38.6453 73.3175 37.5467 73.3175 36.032C73.3175 34.9013 73.7015 34.0053 74.4695 33.344C75.2588 32.6827 76.4748 32.2133 78.1175 31.936C76.5815 31.8293 75.4402 31.4987 74.6935 30.944C73.9682 30.3893 73.6055 29.5787 73.6055 28.512C73.6055 27.4667 74.0108 26.624 74.8215 25.984C75.6322 25.3227 76.8162 24.896 78.3735 24.704C76.9228 24.3413 75.8455 23.744 75.1415 22.912C74.4375 22.0587 74.0855 20.9493 74.0855 19.584C74.0855 17.7067 74.8322 16.2347 76.3255 15.168C77.8188 14.1013 79.9628 13.5253 82.7575 13.44L83.6215 13.408C85.3922 13.344 86.5335 13.0773 87.0455 12.608C87.5788 12.1387 87.8455 11.2 87.8455 9.792V9.536H93.1895V9.984C93.1895 11.6053 92.7948 12.6933 92.0055 13.248C91.2375 13.7813 89.4775 14.048 86.7255 14.048C88.7735 14.2613 90.3308 14.8373 91.3975 15.776C92.4642 16.7147 92.9975 17.984 92.9975 19.584V19.648C92.9975 21.6533 92.1975 23.1893 90.5975 24.256C89.0188 25.3013 86.7255 25.824 83.7175 25.824H82.6615C80.8055 25.824 79.5042 25.92 78.7575 26.112C78.0108 26.2827 77.6375 26.624 77.6375 27.136C77.6375 27.5627 77.9255 27.8613 78.5015 28.032C79.0988 28.2027 80.1655 28.288 81.7015 28.288H85.9255C88.6988 28.288 90.7468 28.736 92.0695 29.632C93.4135 30.5067 94.0855 31.872 94.0855 33.728ZM83.4935 22.624C85.1575 22.624 86.3948 22.3787 87.2055 21.888C88.0162 21.3973 88.4215 20.6507 88.4215 19.648V19.584C88.4215 18.5173 88.0375 17.7387 87.2695 17.248C86.5015 16.736 85.2962 16.48 83.6535 16.48H83.3975C81.8402 16.48 80.6775 16.7467 79.9095 17.28C79.1415 17.8133 78.7575 18.6133 78.7575 19.68V19.712C78.7575 20.7147 79.1308 21.4507 79.8775 21.92C80.6455 22.3893 81.8508 22.624 83.4935 22.624ZM82.9815 36.576H83.8455C85.8295 36.576 87.3015 36.3627 88.2615 35.936C89.2215 35.5307 89.7015 34.9013 89.7015 34.048V33.984C89.7015 33.2587 89.3815 32.7467 88.7415 32.448C88.1015 32.1493 87.0455 32 85.5735 32H81.5735C80.3788 32.0853 79.4828 32.32 78.8855 32.704C78.3095 33.1093 78.0215 33.6533 78.0215 34.336V34.4C78.0215 35.104 78.4375 35.6373 79.2695 36C80.1228 36.384 81.3602 36.576 82.9815 36.576ZM101.37 8.32C101.37 9.344 101.114 10.1013 100.602 10.592C100.111 11.0613 99.3327 11.296 98.266 11.296C97.1567 11.296 96.3673 11.072 95.898 10.624C95.4287 10.1547 95.194 9.38667 95.194 8.32C95.194 7.296 95.4287 6.54933 95.898 6.08C96.3887 5.61067 97.178 5.376 98.266 5.376C99.354 5.376 100.143 5.61067 100.634 6.08C101.125 6.54933 101.37 7.296 101.37 8.32ZM100.602 13.6V32H95.802V13.6H100.602ZM113.635 32.544C110.243 32.544 107.661 31.744 105.891 30.144C104.141 28.5227 103.267 26.1653 103.267 23.072V22.784C103.267 19.8187 104.216 17.4613 106.115 15.712C108.013 13.9627 110.552 13.088 113.731 13.088C116.803 13.088 119.224 13.7813 120.995 15.168C122.787 16.5547 123.811 18.5493 124.067 21.152V21.184H119.075V21.12C118.861 19.7333 118.317 18.6987 117.443 18.016C116.568 17.3333 115.341 16.992 113.763 16.992C111.949 16.992 110.552 17.4933 109.571 18.496C108.589 19.4987 108.099 20.928 108.099 22.784V23.04C108.099 24.832 108.579 26.1973 109.539 27.136C110.499 28.0747 111.896 28.544 113.731 28.544C115.352 28.544 116.6 28.2027 117.475 27.52C118.349 26.816 118.893 25.7493 119.107 24.32V24.288H124.067V24.352C123.853 27.0187 122.851 29.056 121.059 30.464C119.288 31.8507 116.813 32.544 113.635 32.544ZM152.607 27.616V32H135.231V9.184H139.967V27.616H152.607ZM161.373 8.32C161.373 9.344 161.117 10.1013 160.605 10.592C160.114 11.0613 159.335 11.296 158.269 11.296C157.159 11.296 156.37 11.072 155.901 10.624C155.431 10.1547 155.197 9.38667 155.197 8.32C155.197 7.296 155.431 6.54933 155.901 6.08C156.391 5.61067 157.181 5.376 158.269 5.376C159.357 5.376 160.146 5.61067 160.637 6.08C161.127 6.54933 161.373 7.296 161.373 8.32ZM160.605 13.6V32H155.805V13.6H160.605ZM182.02 26.304C182.02 28.224 181.209 29.7493 179.588 30.88C177.966 31.9893 175.726 32.544 172.868 32.544C169.753 32.544 167.342 32 165.636 30.912C163.929 29.8027 162.905 28.1387 162.564 25.92H167.78C167.993 26.9227 168.516 27.648 169.348 28.096C170.18 28.544 171.417 28.768 173.06 28.768C174.532 28.768 175.609 28.5867 176.292 28.224C176.996 27.8613 177.348 27.2853 177.348 26.496C177.348 25.8773 177.006 25.4293 176.324 25.152C175.641 24.8747 174.052 24.64 171.556 24.448C168.526 24.2133 166.393 23.68 165.156 22.848C163.94 21.9947 163.332 20.7467 163.332 19.104C163.332 17.2267 164.089 15.7547 165.604 14.688C167.14 13.6213 169.262 13.088 171.972 13.088C174.809 13.088 177.028 13.6 178.628 14.624C180.249 15.6267 181.273 17.152 181.7 19.2H176.772C176.58 18.3253 176.1 17.6853 175.332 17.28C174.564 16.8747 173.433 16.672 171.94 16.672C170.596 16.672 169.582 16.8533 168.9 17.216C168.238 17.5573 167.908 18.08 167.908 18.784C167.908 19.424 168.249 19.8827 168.932 20.16C169.636 20.4373 171.193 20.672 173.604 20.864C176.825 21.1413 179.033 21.696 180.228 22.528C181.422 23.3387 182.02 24.5973 182.02 26.304ZM195.216 27.776H197.136V32H194C191.206 32 189.286 31.4453 188.24 30.336C187.216 29.2267 186.704 27.104 186.704 23.968V17.696H182.48V13.824C183.142 13.824 183.632 13.824 183.952 13.824C184.272 13.8027 184.582 13.7813 184.88 13.76C185.627 13.7387 186.128 13.5787 186.384 13.28C186.662 12.96 186.854 12.352 186.96 11.456C187.024 11.0933 187.067 10.6453 187.088 10.112C187.131 9.55733 187.142 9.06667 187.12 8.64H191.088V13.6H197.136V17.696H191.088V23.168C191.088 25.1733 191.323 26.4427 191.792 26.976C192.262 27.5093 193.403 27.776 195.216 27.776ZM217.646 26.304C217.646 28.224 216.835 29.7493 215.214 30.88C213.593 31.9893 211.353 32.544 208.494 32.544C205.379 32.544 202.969 32 201.262 30.912C199.555 29.8027 198.531 28.1387 198.19 25.92H203.406C203.619 26.9227 204.142 27.648 204.974 28.096C205.806 28.544 207.043 28.768 208.686 28.768C210.158 28.768 211.235 28.5867 211.918 28.224C212.622 27.8613 212.974 27.2853 212.974 26.496C212.974 25.8773 212.633 25.4293 211.95 25.152C211.267 24.8747 209.678 24.64 207.182 24.448C204.153 24.2133 202.019 23.68 200.782 22.848C199.566 21.9947 198.958 20.7467 198.958 19.104C198.958 17.2267 199.715 15.7547 201.23 14.688C202.766 13.6213 204.889 13.088 207.598 13.088C210.435 13.088 212.654 13.6 214.254 14.624C215.875 15.6267 216.899 17.152 217.326 19.2H212.398C212.206 18.3253 211.726 17.6853 210.958 17.28C210.19 16.8747 209.059 16.672 207.566 16.672C206.222 16.672 205.209 16.8533 204.526 17.216C203.865 17.5573 203.534 18.08 203.534 18.784C203.534 19.424 203.875 19.8827 204.558 20.16C205.262 20.4373 206.819 20.672 209.23 20.864C212.451 21.1413 214.659 21.696 215.854 22.528C217.049 23.3387 217.646 24.5973 217.646 26.304Z" fill="black"/>
<path d="M103.442 44.386V46.22H98.024V50H96.022V40.018H103.694V41.824H98.024V44.386H103.442ZM111.873 50.238C110.249 50.238 109.017 49.8227 108.177 48.992C107.337 48.1613 106.917 46.9387 106.917 45.324V44.792C106.917 43.2427 107.361 42.0247 108.247 41.138C109.143 40.2513 110.357 39.808 111.887 39.808C113.427 39.808 114.641 40.2513 115.527 41.138C116.423 42.0247 116.871 43.2427 116.871 44.792V45.324C116.871 46.892 116.433 48.1053 115.555 48.964C114.687 49.8133 113.46 50.238 111.873 50.238ZM111.887 48.376C112.839 48.376 113.553 48.1193 114.029 47.606C114.515 47.0833 114.757 46.3087 114.757 45.282V44.862C114.757 43.798 114.515 42.9953 114.029 42.454C113.553 41.9127 112.839 41.642 111.887 41.642C110.945 41.642 110.231 41.9127 109.745 42.454C109.269 42.9953 109.031 43.7933 109.031 44.848V45.282C109.031 46.2993 109.269 47.0693 109.745 47.592C110.231 48.1147 110.945 48.376 111.887 48.376ZM124.919 46.542H122.637V50H120.607V40.018H125.045C126.491 40.018 127.565 40.27 128.265 40.774C128.965 41.278 129.315 42.048 129.315 43.084C129.315 43.7653 129.161 44.316 128.853 44.736C128.545 45.1467 128.069 45.4453 127.425 45.632C128.031 45.8 128.47 46.0893 128.741 46.5C129.011 46.9107 129.147 47.494 129.147 48.25V49.426C129.147 49.566 129.165 49.6873 129.203 49.79C129.249 49.8833 129.31 49.9533 129.385 50H127.229C127.154 49.9627 127.098 49.8927 127.061 49.79C127.023 49.678 127.005 49.5473 127.005 49.398V48.278C127.005 47.634 126.851 47.186 126.543 46.934C126.244 46.6727 125.703 46.542 124.919 46.542ZM125.017 41.754H122.637V44.792H124.961C125.726 44.792 126.291 44.6707 126.655 44.428C127.028 44.176 127.215 43.798 127.215 43.294V43.21C127.215 42.6967 127.042 42.328 126.697 42.104C126.351 41.8707 125.791 41.754 125.017 41.754ZM141.149 42.818L141.177 43.028V50H139.217V40.018H141.219L146.203 46.78L146.385 47.144L146.357 46.85V40.018H148.303V50H146.385L141.331 43.168L141.149 42.818ZM162.065 50H159.951L159.041 47.788H154.463L153.595 50H151.453L155.653 40.018H157.781L162.065 50ZM155.135 46.094H158.341L156.717 42.118L155.135 46.094ZM172.711 40.018L168.651 50H166.579L162.673 40.018H164.871L167.657 47.368L170.527 40.018H172.711ZM177.968 40.018V50H175.91V40.018H177.968ZM186.198 50H182.138V40.018H186.1C187.752 40.018 189.017 40.424 189.894 41.236C190.781 42.048 191.224 43.224 191.224 44.764V45.296C191.224 46.8267 190.79 47.9933 189.922 48.796C189.064 49.5987 187.822 50 186.198 50ZM186.016 41.782H184.168V48.222H186.1C187.146 48.222 187.916 47.9747 188.41 47.48C188.914 46.9853 189.166 46.22 189.166 45.184V44.848C189.166 43.812 188.905 43.042 188.382 42.538C187.869 42.034 187.08 41.782 186.016 41.782ZM199.283 46.542H197.001V50H194.971V40.018H199.409C200.855 40.018 201.929 40.27 202.629 40.774C203.329 41.278 203.679 42.048 203.679 43.084C203.679 43.7653 203.525 44.316 203.217 44.736C202.909 45.1467 202.433 45.4453 201.789 45.632C202.395 45.8 202.834 46.0893 203.105 46.5C203.375 46.9107 203.511 47.494 203.511 48.25V49.426C203.511 49.566 203.529 49.6873 203.567 49.79C203.613 49.8833 203.674 49.9533 203.749 50H201.593C201.518 49.9627 201.462 49.8927 201.425 49.79C201.387 49.678 201.369 49.5473 201.369 49.398V48.278C201.369 47.634 201.215 47.186 200.907 46.934C200.608 46.6727 200.067 46.542 199.283 46.542ZM199.381 41.754H197.001V44.792H199.325C200.09 44.792 200.655 44.6707 201.019 44.428C201.392 44.176 201.579 43.798 201.579 43.294V43.21C201.579 42.6967 201.406 42.328 201.061 42.104C200.715 41.8707 200.155 41.754 199.381 41.754ZM212.011 50.238C210.387 50.238 209.155 49.8227 208.315 48.992C207.475 48.1613 207.055 46.9387 207.055 45.324V44.792C207.055 43.2427 207.499 42.0247 208.385 41.138C209.281 40.2513 210.495 39.808 212.025 39.808C213.565 39.808 214.779 40.2513 215.665 41.138C216.561 42.0247 217.009 43.2427 217.009 44.792V45.324C217.009 46.892 216.571 48.1053 215.693 48.964C214.825 49.8133 213.598 50.238 212.011 50.238ZM212.025 48.376C212.977 48.376 213.691 48.1193 214.167 47.606C214.653 47.0833 214.895 46.3087 214.895 45.282V44.862C214.895 43.798 214.653 42.9953 214.167 42.454C213.691 41.9127 212.977 41.642 212.025 41.642C211.083 41.642 210.369 41.9127 209.883 42.454C209.407 42.9953 209.169 43.7933 209.169 44.848V45.282C209.169 46.2993 209.407 47.0693 209.883 47.592C210.369 48.1147 211.083 48.376 212.025 48.376ZM226.037 46.92H225.813L222.705 43.056V50H220.745V40.018H222.649L225.967 44.26L229.369 40.032H231.203V50H229.243V43.014L226.037 46.92ZM237.315 48.194H243.531V50H235.341V40.018H243.265V41.754H237.315V44.106H242.355V45.842H237.315V48.194Z" fill="#A9A9A9"/>
</svg>
